<?xml version="1.0" encoding="UTF-8" standalone="no"?>
<!-- Created with Inkscape (http://www.inkscape.org/) -->

<svg
   xmlns:dc="http://purl.org/dc/elements/1.1/"
   xmlns:cc="http://creativecommons.org/ns#"
   xmlns:rdf="http://www.w3.org/1999/02/22-rdf-syntax-ns#"
   xmlns:svg="http://www.w3.org/2000/svg"
   xmlns="http://www.w3.org/2000/svg"
   xmlns:sodipodi="http://sodipodi.sourceforge.net/DTD/sodipodi-0.dtd"
   xmlns:inkscape="http://www.inkscape.org/namespaces/inkscape"
   version="1.1"
   id="svg2"
   xml:space="preserve"
   width="685.42236"
   height="338.94199"
   viewBox="0 0 685.42237 338.94198"
   sodipodi:docname="milano.svg"
   inkscape:version="0.92.2 2405546, 2018-03-11"><metadata
     id="metadata8"><rdf:RDF><cc:Work
         rdf:about=""><dc:format>image/svg+xml</dc:format><dc:type
           rdf:resource="http://purl.org/dc/dcmitype/StillImage" /><dc:title></dc:title></cc:Work></rdf:RDF></metadata><defs
     id="defs6"><clipPath
       clipPathUnits="userSpaceOnUse"
       id="clipPath18"><path
         d="M 0,841.89 H 595.28 V 0 H 0 Z"
         id="path16"
         inkscape:connector-curvature="0" /></clipPath></defs><sodipodi:namedview
     pagecolor="#ffffff"
     bordercolor="#666666"
     borderopacity="1"
     objecttolerance="10"
     gridtolerance="10"
     guidetolerance="10"
     inkscape:pageopacity="0"
     inkscape:pageshadow="2"
     inkscape:window-width="1366"
     inkscape:window-height="708"
     id="namedview4"
     showgrid="false"
     fit-margin-top="0"
     fit-margin-left="0"
     fit-margin-right="0"
     fit-margin-bottom="0"
     inkscape:zoom="0.84096496"
     inkscape:cx="411.24672"
     inkscape:cy="127.33677"
     inkscape:window-x="0"
     inkscape:window-y="31"
     inkscape:window-maximized="1"
     inkscape:current-layer="g10" /><g
     id="g10"
     inkscape:groupmode="layer"
     inkscape:label="PatrocinioComuneMilano_Orizzontale4Colori"
     transform="matrix(1.3333333,0,0,-1.3333333,-46.593199,682.52652)"><g
       id="g12"><g
         id="g14"
         clip-path="url(#clipPath18)"><g
           id="g20"
           transform="translate(322.9844,504.3745)"><path
             d="M 0,0 C 0,1.904 -0.619,3.389 -1.857,4.453 -2.982,5.434 -4.402,5.924 -6.117,5.924 -6.482,5.924 -7.13,5.909 -8.059,5.882 -8.986,5.854 -9.535,5.84 -9.703,5.84 c -0.31,0 -0.486,-0.022 -0.527,-0.064 -0.043,-0.042 -0.064,-0.23 -0.064,-0.567 V -5.63 c 0,-0.392 0.197,-0.602 0.591,-0.63 1.94,-0.169 2.756,-0.253 2.447,-0.253 2.249,0 4.022,0.568 5.315,1.702 C -0.648,-3.677 0,-2.073 0,0 m 4.705,0 c 0,-2.381 -1.152,-4.285 -3.455,-5.714 -2.163,-1.317 -4.916,-1.974 -8.258,-1.974 -0.506,0 -1.173,0.048 -2.002,0.146 -0.828,0.099 -1.256,0.147 -1.284,0.147 v -9.327 c 0,-1.793 -0.292,-3.018 -0.874,-3.675 -0.582,-0.659 -1.539,-0.988 -2.869,-0.988 h -0.416 V 4.954 c 0,0.478 -0.099,0.772 -0.294,0.885 -0.196,0.112 -0.687,0.182 -1.471,0.211 h -1.764 V 7.1 h 2.626 3.003 3.761 2.92 C -2.815,7.1 -0.436,6.512 1.47,5.336 3.627,4.047 4.705,2.269 4.705,0"
             style="fill:#231f20;fill-opacity:1;fill-rule:nonzero;stroke:none"
             id="path22"
             inkscape:connector-curvature="0" /></g><g
           id="g24"
           transform="translate(346.0488,493.8286)"><path
             d="M 0,0 C 0,0.225 -1.751,4.775 -5.252,13.654 L -10.63,0 c 0,-0.112 0.099,-0.168 0.294,-0.168 h 10 C -0.113,-0.168 0,-0.112 0,0 M 8.78,-10.839 H 8.066 c -2.578,0 -4.341,1.218 -5.294,3.655 L 0.588,-1.596 C 0.476,-1.344 0.321,-1.218 0.125,-1.218 H -10.84 c -0.196,0 -0.35,-0.126 -0.462,-0.378 l -3.571,-8.865 h -1.26 l 9.705,24.241 c 0.336,0.841 0.504,1.387 0.504,1.639 0,0.7 -0.574,1.064 -1.722,1.093 l -1.766,0.042 v 1.092 h 1.618 1.827 1.85 1.638 z"
             style="fill:#231f20;fill-opacity:1;fill-rule:nonzero;stroke:none"
             id="path26"
             inkscape:connector-curvature="0" /></g><g
           id="g28"
           transform="translate(380.2891,504.6685)"><path
             d="M 0,0 H -1.009 C -1.177,2.132 -1.877,3.625 -3.109,4.479 -4.201,5.246 -5.952,5.63 -8.361,5.63 H -9.117 C -9.426,5.63 -9.6,5.608 -9.643,5.566 -9.684,5.524 -9.705,5.334 -9.705,4.997 v -21.998 c 0,-1.799 -0.295,-3.027 -0.883,-3.687 -0.588,-0.661 -1.555,-0.991 -2.898,-0.991 h -0.42 V 4.997 c 0,0.337 -0.022,0.527 -0.064,0.569 -0.042,0.042 -0.218,0.064 -0.524,0.064 h -0.757 C -17.66,5.63 -19.41,5.246 -20.503,4.479 -21.735,3.625 -22.436,2.132 -22.604,0 h -1.007 v 1.659 1.744 1.723 1.68 h 5.318 6.486 6.489 H 0 V 5.126 3.403 1.659 Z"
             style="fill:#231f20;fill-opacity:1;fill-rule:nonzero;stroke:none"
             id="path30"
             inkscape:connector-curvature="0" /></g><g
           id="g32"
           transform="translate(400.3711,504.6265)"><path
             d="M 0,0 C 0,1.876 -0.577,3.319 -1.73,4.327 -2.743,5.224 -4.121,5.672 -5.865,5.672 -6.231,5.672 -6.844,5.657 -7.701,5.63 -8.559,5.602 -9.072,5.588 -9.24,5.588 -9.551,5.588 -9.727,5.566 -9.769,5.524 -9.811,5.482 -9.832,5.294 -9.832,4.957 V -5.63 c 0,-0.308 0.028,-0.49 0.084,-0.546 0.057,-0.056 0.226,-0.084 0.508,-0.084 h 2.362 c 2.56,0 4.388,0.588 5.485,1.765 C -0.465,-3.516 0,-2.017 0,0 M 4.873,-21.637 H 4.411 c -2.886,0 -4.327,1.555 -4.327,4.663 0,3.501 -0.408,5.896 -1.225,7.185 -1.011,1.597 -3.023,2.394 -6.033,2.394 H -9.24 c -0.311,0 -0.487,-0.02 -0.529,-0.062 -0.042,-0.042 -0.063,-0.231 -0.063,-0.567 v -8.95 c 0,-1.793 -0.291,-3.018 -0.873,-3.675 -0.582,-0.659 -1.539,-0.988 -2.869,-0.988 H -13.99 V 4.702 c 0,0.478 -0.1,0.772 -0.295,0.885 -0.195,0.112 -0.687,0.183 -1.471,0.211 h -1.764 v 1.05 h 2.625 3.004 3.657 2.814 c 2.828,0 5.152,-0.561 6.975,-1.68 C 3.598,3.907 4.621,2.185 4.621,0 c 0,-2.045 -0.84,-3.684 -2.521,-4.916 -1.344,-0.98 -3.053,-1.596 -5.125,-1.849 2.353,-0.308 4.089,-1.078 5.21,-2.31 1.456,-1.624 2.184,-4.258 2.184,-7.899 0,-1.821 0.168,-3.375 0.504,-4.663"
             style="fill:#231f20;fill-opacity:1;fill-rule:nonzero;stroke:none"
             id="path34"
             inkscape:connector-curvature="0" /></g><g
           id="g36"
           transform="translate(430.6621,497.8198)"><path
             d="m 0,0 c 0,4.481 -0.532,7.688 -1.596,9.621 -1.176,2.185 -3.236,3.277 -6.176,3.277 -2.941,0 -4.999,-1.092 -6.176,-3.277 -1.066,-1.933 -1.597,-5.14 -1.597,-9.621 0,-5.014 0.574,-8.543 1.723,-10.587 1.148,-2.129 3.165,-3.193 6.05,-3.193 2.884,0 4.901,1.064 6.049,3.193 C -0.574,-8.543 0,-5.014 0,0 m 4.705,0 c 0,-4.846 -1.218,-8.599 -3.654,-11.259 -2.241,-2.466 -5.182,-3.697 -8.823,-3.697 -3.697,0 -6.653,1.231 -8.865,3.697 -2.41,2.66 -3.613,6.413 -3.613,11.259 0,4.313 1.26,7.787 3.781,10.42 2.353,2.436 5.252,3.655 8.697,3.655 3.556,0 6.497,-1.233 8.823,-3.697 C 3.487,7.772 4.705,4.313 4.705,0"
             style="fill:#231f20;fill-opacity:1;fill-rule:nonzero;stroke:none"
             id="path38"
             inkscape:connector-curvature="0" /></g><g
           id="g40"
           transform="translate(462.0879,487.0229)"><path
             d="m 0,0 c -2.232,-2.773 -5.302,-4.159 -9.207,-4.159 -3.684,0 -6.627,1.231 -8.83,3.697 -2.401,2.66 -3.6,6.413 -3.6,11.259 0,4.313 1.283,7.787 3.85,10.42 2.371,2.436 5.33,3.655 8.873,3.655 1.728,0 3.641,-0.267 5.732,-0.799 2.094,-0.532 3.154,-0.798 3.182,-0.798 v -1.533 -1.576 -1.597 -1.511 h -1.008 c -0.168,1.988 -0.961,3.577 -2.375,4.768 -1.414,1.19 -3.242,1.785 -5.482,1.785 -2.941,0 -5.056,-1.106 -6.344,-3.319 -1.148,-1.989 -1.723,-5.153 -1.723,-9.495 0,-4.93 0.572,-8.417 1.715,-10.461 1.142,-2.045 3.149,-3.067 6.02,-3.067 3.761,0 6.828,1.583 9.197,4.748 z"
             style="fill:#231f20;fill-opacity:1;fill-rule:nonzero;stroke:none"
             id="path42"
             inkscape:connector-curvature="0" /></g><g
           id="g44"
           transform="translate(477.3379,510.4243)"><path
             d="M 0,0 H -1.785 C -2.636,-0.028 -3.146,-0.092 -3.316,-0.189 -3.486,-0.288 -3.57,-0.59 -3.57,-1.096 v -21.661 c 0,-1.799 -0.292,-3.027 -0.874,-3.687 -0.583,-0.66 -1.539,-0.991 -2.87,-0.991 H -7.73 v 26.339 c 0,0.478 -0.098,0.772 -0.293,0.885 -0.198,0.112 -0.688,0.183 -1.471,0.211 h -1.766 v 1.05 h 2.627 3.004 2.983 L 0,1.05 Z"
             style="fill:#231f20;fill-opacity:1;fill-rule:nonzero;stroke:none"
             id="path46"
             inkscape:connector-curvature="0" /></g><g
           id="g48"
           transform="translate(506.6631,510.4243)"><path
             d="M 0,0 H -1.765 C -2.55,-0.028 -3.04,-0.092 -3.235,-0.189 -3.432,-0.288 -3.529,-0.59 -3.529,-1.096 V -27.435 H -4.79 l -17.309,25.502 v -25.124 h -1.344 v 25.961 c 0,0.478 -0.099,0.772 -0.294,0.885 -0.198,0.112 -0.688,0.183 -1.471,0.211 h -1.765 v 1.05 h 1.891 2.059 1.995 1.954 l 14.2,-20.964 v 18.817 c 0,0.478 -0.098,0.773 -0.294,0.886 -0.196,0.112 -0.686,0.183 -1.47,0.211 h -1.765 v 1.05 h 2.017 2.184 1.87 L 0,1.05 Z"
             style="fill:#231f20;fill-opacity:1;fill-rule:nonzero;stroke:none"
             id="path50"
             inkscape:connector-curvature="0" /></g><g
           id="g52"
           transform="translate(520.2754,510.4243)"><path
             d="m 0,0 h -1.786 c -0.851,-0.028 -1.36,-0.092 -1.53,-0.189 -0.17,-0.099 -0.256,-0.401 -0.256,-0.907 v -21.661 c 0,-1.799 -0.291,-3.027 -0.873,-3.687 -0.582,-0.66 -1.539,-0.991 -2.869,-0.991 H -7.73 v 26.339 c 0,0.478 -0.1,0.772 -0.295,0.885 -0.196,0.112 -0.687,0.183 -1.471,0.211 h -1.764 v 1.05 h 2.625 3.004 2.984 L 0,1.05 Z"
             style="fill:#231f20;fill-opacity:1;fill-rule:nonzero;stroke:none"
             id="path54"
             inkscape:connector-curvature="0" /></g><g
           id="g56"
           transform="translate(544.3057,497.8198)"><path
             d="m 0,0 c 0,4.481 -0.532,7.688 -1.597,9.621 -1.175,2.185 -3.234,3.277 -6.175,3.277 -2.942,0 -5,-1.092 -6.176,-3.277 -1.065,-1.933 -1.597,-5.14 -1.597,-9.621 0,-5.014 0.573,-8.543 1.723,-10.587 1.148,-2.129 3.165,-3.193 6.05,-3.193 2.884,0 4.901,1.064 6.05,3.193 C -0.574,-8.543 0,-5.014 0,0 m 4.706,0 c 0,-4.846 -1.219,-8.599 -3.656,-11.259 -2.24,-2.466 -5.182,-3.697 -8.822,-3.697 -3.698,0 -6.653,1.231 -8.866,3.697 -2.408,2.66 -3.612,6.413 -3.612,11.259 0,4.313 1.261,7.787 3.78,10.42 2.354,2.436 5.252,3.655 8.698,3.655 3.556,0 6.498,-1.233 8.822,-3.697 C 3.487,7.772 4.706,4.313 4.706,0"
             style="fill:#231f20;fill-opacity:1;fill-rule:nonzero;stroke:none"
             id="path58"
             inkscape:connector-curvature="0" /></g><g
           id="g60"
           transform="translate(368.4805,389.8291)"><path
             d="m 0,0 v 2.051 c -3.503,0 -4.902,-0.164 -7.291,-0.164 -2.529,0 -4.189,0.164 -7.303,0.164 L -30.977,-37.816 -47.552,2.051 c -3.084,0 -4.282,-0.164 -7.447,-0.164 -3.167,0 -4.663,0.164 -7.455,0.164 V 0 l 3.331,-0.082 c 2.935,-0.096 3.345,-0.246 3.345,-2.066 v -48.823 h 2.508 v 46.444 l 18.156,-43.586 h 2.38 l 18.14,43.586 v -38.362 c 0,-6.963 2.224,-8.793 7.058,-8.793 h 0.876 v 49.534 c 0,1.97 0.641,1.97 3.336,2.066 z"
             style="fill:#231f20;fill-opacity:1;fill-rule:nonzero;stroke:none"
             id="path62"
             inkscape:connector-curvature="0" /></g><g
           id="g64"
           transform="translate(386.7441,338.2412)"><path
             d="m 0,0 v 36.01 c 0,0.642 -0.15,0.781 -0.938,0.781 -0.724,0 -6.646,-0.467 -11.966,-0.467 v -1.9 l 4.514,-0.082 c 0.963,0 1.191,-0.397 1.191,-1.356 V 7.604 C -7.199,3.092 -5.531,0 -1.348,0 Z"
             style="fill:#231f20;fill-opacity:1;fill-rule:nonzero;stroke:none"
             id="path66"
             inkscape:connector-curvature="0" /></g><g
           id="g68"
           transform="translate(501.3301,338.1729)"><path
             d="m 0,0 v 27.299 c 0,6.017 -4.752,10.449 -11.788,10.449 -5.772,0 -9.984,-3.01 -12.023,-7.838 v 6.102 c 0,0.64 -0.164,0.791 -0.957,0.791 -0.711,0 -6.646,-0.49 -11.945,-0.49 v -1.889 l 4.513,-0.082 c 0.936,0 1.176,-0.385 1.176,-1.342 V 0.711 h 7.213 v 21.842 c 0,6.168 4.104,12.035 9.799,12.035 4.041,0 6.832,-2.461 6.832,-8.234 V 7.605 C -7.18,3.092 -5.539,0 -1.34,0 Z"
             style="fill:#231f20;fill-opacity:1;fill-rule:nonzero;stroke:none"
             id="path70"
             inkscape:connector-curvature="0" /></g><g
           id="g72"
           transform="translate(411.3555,345.8447)"><path
             d="m 0,0 v 45.639 c 0,0.658 -0.152,0.795 -0.945,0.795 -0.703,0 -6.647,-0.481 -11.951,-0.481 V 44.08 l 4.511,-0.082 c 0.957,0 1.197,-0.412 1.197,-1.353 V -7.604 H -5.86 C -1.648,-7.604 0,-4.512 0,0"
             style="fill:#231f20;fill-opacity:1;fill-rule:nonzero;stroke:none"
             id="path74"
             inkscape:connector-curvature="0" /></g><g
           id="g76"
           transform="translate(454.0176,338.2412)"><path
             d="m 0,0 c 0,1.752 -0.458,5.471 -0.458,7.604 v 20.884 c 0,5.936 -5.642,9.26 -12.596,9.26 -9.176,0 -14.872,-5.156 -14.872,-7.455 0,-2.283 1.347,-2.994 3.165,-2.994 5.225,0 3.249,8.396 10.756,8.396 4.124,0 6.496,-2.146 6.496,-6.263 v -6.647 c 0,-1.107 -0.081,-1.189 -1.196,-1.189 l -2.201,-0.082 C -22.073,21.131 -30.62,16.221 -30.62,9.588 c 0,-6.578 4.52,-9.82 14.099,-9.82 4.971,0 8.302,3.488 9.101,6.416 C -7.037,1.422 -4.67,0 -1.176,0 Z m -7.509,12.898 c 0,-5.224 -3.261,-10.996 -8.239,-10.996 -4.486,0 -7.043,2.119 -7.043,7.754 0,5.375 4.281,9.504 12.369,9.875 l 1.717,0.096 c 1.115,0.082 1.196,-0.096 1.196,-1.176 z"
             style="fill:#231f20;fill-opacity:1;fill-rule:evenodd;stroke:none"
             id="path78"
             inkscape:connector-curvature="0" /></g><g
           id="g80"
           transform="translate(549.0059,357.4697)"><path
             d="m 0,0 c 0,9.82 -7.44,18.52 -18.148,18.52 -10.347,0 -18.094,-8.7 -18.094,-18.52 0,-11.076 7.268,-19.461 18.094,-19.461 C -7.289,-19.461 0,-11.076 0,0 m -8.165,0 c 0,-10.846 -1.737,-17.326 -9.983,-17.326 -8.131,0 -9.951,6.48 -9.951,17.326 0,9.027 1.58,16.385 9.951,16.385 8.711,0 9.983,-7.358 9.983,-16.385"
             style="fill:#231f20;fill-opacity:1;fill-rule:evenodd;stroke:none"
             id="path82"
             inkscape:connector-curvature="0" /></g><g
           id="g84"
           transform="translate(536.5322,407.8115)"><path
             d="m 0,0 v 24.605 c 0,0.287 -0.047,0.368 -0.417,0.368 -0.314,0 -3.084,-0.231 -5.531,-0.231 v -0.889 l 2.093,-0.028 c 0.444,0 0.574,-0.178 0.574,-0.616 v -8.697 c -0.507,1.258 -2.038,2.941 -4.829,2.941 -4.643,0 -8.164,-4.063 -8.164,-8.562 0,-5.157 2.811,-8.998 7.906,-8.998 2.639,0 4.43,1.312 5.237,3.664 C -3.131,1.355 -2.393,0 -0.417,0 Z m -3.274,8.891 c 0,-4.61 -1.539,-7.795 -4.61,-7.795 -3.624,0 -4.609,3.297 -4.609,7.795 0,4.13 0.842,7.359 4.609,7.359 3.44,0 4.61,-3.667 4.61,-7.359"
             style="fill:#231f20;fill-opacity:1;fill-rule:evenodd;stroke:none"
             id="path86"
             inkscape:connector-curvature="0" /></g><g
           id="g88"
           transform="translate(546.8184,407.8115)"><path
             d="m 0,0 v 16.659 c 0,0.287 -0.097,0.356 -0.452,0.356 -0.328,0 -3.084,-0.206 -5.526,-0.206 v -0.875 l 2.093,-0.041 c 0.438,0 0.554,-0.19 0.554,-0.63 V 3.502 C -3.331,1.436 -2.572,0 -0.63,0 Z"
             style="fill:#231f20;fill-opacity:1;fill-rule:evenodd;stroke:none"
             id="path90"
             inkscape:connector-curvature="0" /></g><g
           id="g92"
           transform="translate(334.5225,412.2979)"><path
             d="m 0,0 v 2.572 c -2.571,-3.445 -6.824,-6.086 -11.817,-6.086 -7.398,0 -9.949,4.856 -9.949,17.314 0,10.585 2.467,16.384 10.326,16.384 5.806,0 9.607,-3.322 10.044,-8.369 H 0 c 0,1.106 -0.097,2.734 -0.097,3.952 0,1.421 0.097,2.707 0.097,3.992 -1.245,0 -5.901,2.038 -11.44,2.038 -8.651,0 -16.331,-6.482 -16.331,-17.997 0,-12.898 6.914,-19.12 15.954,-19.12 4.692,0 9.026,1.875 11.817,5.32"
             style="fill:#231f20;fill-opacity:1;fill-rule:nonzero;stroke:none"
             id="path94"
             inkscape:connector-curvature="0" /></g><g
           id="g96"
           transform="translate(365.2393,420.1899)"><path
             d="m 0,0 c 0,6.674 -5.04,12.568 -12.296,12.568 -7.056,0 -12.321,-5.894 -12.321,-12.568 0,-7.535 4.957,-13.212 12.321,-13.212 C -4.944,-13.212 0,-7.535 0,0 m -5.54,0 c 0,-7.359 -1.175,-11.777 -6.756,-11.777 -5.538,0 -6.775,4.418 -6.775,11.777 0,6.126 1.072,11.118 6.775,11.118 5.908,0 6.756,-4.992 6.756,-11.118"
             style="fill:#231f20;fill-opacity:1;fill-rule:evenodd;stroke:none"
             id="path98"
             inkscape:connector-curvature="0" /></g><g
           id="g100"
           transform="translate(410.4941,407.1162)"><path
             d="m 0,0 v 18.559 c 0,4.061 -3.065,7.083 -7.693,7.083 -3.817,0 -6.681,-2.366 -7.959,-5.32 -0.432,1.834 -2.422,5.32 -7.565,5.32 -3.596,0 -6.454,-2.037 -7.855,-5.32 v 4.131 c 0,0.436 -0.097,0.546 -0.631,0.546 -0.491,0 -4.499,-0.328 -8.129,-0.328 v -1.286 l 3.07,-0.055 c 0.628,0 0.806,-0.273 0.806,-0.902 V 0.479 h 4.884 v 14.852 c 0,4.185 2.967,8.164 6.364,8.164 2.66,0 4.289,-1.669 4.289,-5.58 V 5.182 c 0,-3.077 1.12,-5.182 3.966,-5.182 h 0.929 v 15.331 c 0,4.129 2.901,8.164 6.346,8.164 2.68,0 4.282,-1.669 4.282,-5.58 V 5.182 C -4.896,2.105 -3.756,0 -0.91,0 Z"
             style="fill:#231f20;fill-opacity:1;fill-rule:nonzero;stroke:none"
             id="path102"
             inkscape:connector-curvature="0" /></g><g
           id="g104"
           transform="translate(442.2695,407.1162)"><path
             d="M 0,0 V 24.671 H -4.896 V 10.16 c 0,-4.185 -2.688,-8.164 -6.502,-8.164 -2.696,0 -4.46,1.682 -4.46,5.594 v 16.863 c 0,0.436 -0.123,0.546 -0.65,0.546 -0.499,0 -4.519,-0.328 -8.123,-0.328 v -1.286 l 3.07,-0.055 c 0.651,0 0.808,-0.273 0.808,-0.902 V 6.947 c 0,-4.076 3.118,-7.086 7.843,-7.086 3.863,0 6.627,2.026 8.014,5.321 C -4.896,2.105 -3.773,0 -0.91,0 Z"
             style="fill:#231f20;fill-opacity:1;fill-rule:nonzero;stroke:none"
             id="path106"
             inkscape:connector-curvature="0" /></g><g
           id="g108"
           transform="translate(474.3408,407.1162)"><path
             d="m 0,0 v 18.559 c 0,4.061 -3.222,7.083 -7.994,7.083 -3.952,0 -6.77,-2.037 -8.179,-5.32 v 4.131 c 0,0.436 -0.109,0.546 -0.642,0.546 -0.493,0 -4.512,-0.328 -8.131,-0.328 v -1.286 l 3.077,-0.055 c 0.637,0 0.8,-0.273 0.8,-0.902 V 0.479 h 4.896 v 14.852 c 0,4.185 2.804,8.164 6.654,8.164 2.762,0 4.616,-1.669 4.616,-5.58 V 5.182 C -4.903,2.105 -3.747,0 -0.909,0 Z"
             style="fill:#231f20;fill-opacity:1;fill-rule:nonzero;stroke:none"
             id="path110"
             inkscape:connector-curvature="0" /></g><g
           id="g112"
           transform="translate(505.2617,420.9966)"><path
             d="m 0,0 c 0,5.798 -4.424,11.762 -10.811,11.762 -6.175,0 -11.343,-5.785 -11.343,-12.569 0,-7.616 4.041,-13.212 11.727,-13.212 4.978,0 8.041,2.135 9.552,3.967 v 2.31 c -2.346,-3.172 -5.531,-4.732 -9.251,-4.732 -5.096,0 -6.606,4.185 -6.606,10.273 0,0.805 0.123,0.903 0.929,0.903 H -0.752 C -0.28,-1.298 0,-1.012 0,0 m -5.449,1.066 c 0,-0.805 0,-0.903 -0.786,-0.903 h -9.568 c -0.806,0 -0.806,0 -0.806,0.795 0,5.279 1.75,9.354 5.798,9.354 3.864,0 5.362,-4.144 5.362,-9.246"
             style="fill:#231f20;fill-opacity:1;fill-rule:evenodd;stroke:none"
             id="path114"
             inkscape:connector-curvature="0" /></g><g
           id="g116"
           transform="translate(155.5957,324.5654)"><path
             d="m 0,0 c 7.831,4.814 17.562,5.402 26.751,6.797 12.22,1.834 21.451,10.162 21.451,22.99 v 0.82 98.046 h -96.41 v -98.046 -0.82 c 0,-12.828 9.238,-21.156 21.485,-22.99 C -17.546,5.402 -7.809,4.814 0,0"
             style="fill:#ffffff;fill-opacity:1;fill-rule:evenodd;stroke:none"
             id="path118"
             inkscape:connector-curvature="0" /></g><g
           id="g120"
           transform="translate(204.3867,406.6377)"><path
             d="m 0,0 h -35.038 v 47.769 h -27.51 V 0 h -35.626 v -27.49 h 35.626 v -51.149 l 13.757,-4.855 13.753,4.855 V -27.49 H 0 Z"
             style="fill:#ed1c24;fill-opacity:1;fill-rule:nonzero;stroke:none"
             id="path122"
             inkscape:connector-curvature="0" /></g><g
           id="g124"
           transform="translate(85.2607,467.4146)"><path
             d="m 0,0 c 3.835,-5.896 2.399,-14.867 -1.313,-20.338 -1.627,-2.27 -3.345,-4.622 -5.608,-6.277 -3.775,-3.72 -8.096,-7.426 -10.093,-12.375 -0.028,-0.042 -0.164,-0.139 -0.253,-0.042 l -0.102,0.123 c 1.12,4.554 2.454,8.998 4.376,13.212 1.86,5.141 5.614,8.984 8.117,13.606 0.361,0.971 0.923,1.996 0.588,3.105 -0.123,0.178 -0.37,0.178 -0.588,0.178 -1.894,-1.245 -3.186,-3.474 -4.616,-5.142 -2.216,-3.229 -4.547,-6.525 -6.25,-10.08 l 0.026,-0.192 -0.183,-0.054 c -1.888,-3.94 -3.481,-8.055 -4.65,-12.294 -0.123,-0.192 0.088,-0.671 -0.22,-0.671 -0.382,3.584 -2.085,6.592 -2.543,10.107 1.69,7.877 5.572,15.509 12.357,20.103 3.077,2.312 6.208,5.403 7.782,8.836 0.273,0.369 0.806,0.369 1.279,0.327 C -0.965,1.668 -0.562,0.778 0,0"
             style="fill:#007b5e;fill-opacity:1;fill-rule:nonzero;stroke:none"
             id="path126"
             inkscape:connector-curvature="0" /></g><g
           id="g128"
           transform="translate(59.8223,453.1079)"><path
             d="m 0,0 c 0.424,-0.656 -0.13,-1.34 -0.096,-2.05 -2.36,-6.47 -1.175,-14.334 0.97,-20.556 1.225,-4.623 1.437,-10.134 0.364,-14.907 -0.124,-0.137 -0.364,0.055 -0.403,0.232 -0.411,0.793 -0.965,1.477 -1.301,2.352 -2.987,4.827 -5.197,10.012 -5.9,15.796 -0.309,2.503 0.431,4.979 -0.034,7.37 -0.048,0.234 -0.212,0.453 -0.397,0.589 -0.849,0.152 -0.93,-0.834 -1.361,-1.284 -2.982,-8.713 0.965,-17.245 5.075,-24.262 0.97,-1.807 2.058,-3.528 2.728,-5.512 2.338,-5.375 3.994,-11.379 3.267,-17.777 0,-1.219 -0.471,-2.272 -0.744,-3.381 H 2.099 c -1.073,2.326 -2.454,4.762 -4.683,6.156 l -0.992,0.424 c -0.185,3.062 -0.938,5.824 -1.744,8.603 -1.587,6.112 -5.409,10.926 -7.426,16.848 -0.192,0.096 -0.192,0.288 -0.192,0.506 -1.697,4.513 -2.544,9.738 -1.558,14.825 1.271,6.523 5.058,12.268 10.92,15.741 C -2.584,0.056 -0.91,1.34 0,0"
             style="fill:#007b5e;fill-opacity:1;fill-rule:nonzero;stroke:none"
             id="path130"
             inkscape:connector-curvature="0" /></g><g
           id="g132"
           transform="translate(88.5693,440.2808)"><path
             d="m 0,0 c 2.584,-7.7 0.343,-16.126 -3.897,-22.239 -3.186,-5.142 -8.768,-8.136 -12.829,-12.582 -2.079,-2.119 -4.089,-4.224 -5.484,-6.715 -0.26,0.235 -0.034,0.875 -0.178,1.34 -0.042,2.037 -0.628,3.858 -1.053,5.731 0.603,0.56 0.883,1.271 1.346,1.859 4.096,5.514 10.403,8.85 13.957,14.689 1.657,2.545 3.181,5.074 3.639,8.138 -0.123,0.465 0.082,1.067 -0.458,1.3 -0.957,-0.042 -1.457,-1.055 -1.998,-1.711 -2.564,-5.279 -6.816,-9.626 -11.192,-13.348 -2.394,-2.31 -4.842,-4.377 -6.511,-7.261 h -0.123 c -0.15,0.875 0.123,1.804 0.096,2.693 1.395,10.04 8.465,18.246 16.131,23.879 2.208,1.996 4.137,4.227 5.073,7.003 0.199,0.287 0.39,0.587 0.829,0.546 C -1.054,3.145 -0.588,1.298 0,0"
             style="fill:#007b5e;fill-opacity:1;fill-rule:nonzero;stroke:none"
             id="path134"
             inkscape:connector-curvature="0" /></g><g
           id="g136"
           transform="translate(44.6699,418.8096)"><path
             d="m 0,0 c 0.313,-0.48 0.518,-1.137 0.518,-1.684 0.356,-5.005 1.888,-9.531 3.667,-13.894 0.204,-0.26 0.327,-0.547 0.411,-0.877 2.267,-4.539 5.312,-8.561 6.925,-13.387 0.5,-1.164 0.786,-2.353 1.175,-3.515 0.61,-2.352 1.431,-4.676 1.431,-7.235 h -0.123 c -3.46,4.088 -8.205,7.057 -10.75,11.639 -2.237,3.514 -3.762,7.535 -4.458,11.816 -0.321,1.299 -0.261,2.666 -0.753,3.885 -0.157,0.356 -0.41,0.695 -0.766,0.916 -0.874,-0.178 -0.819,-1.287 -1.052,-1.984 -0.534,-3.746 0.417,-7.412 1.339,-10.844 0.398,-0.699 0.479,-1.52 0.911,-2.258 2.003,-5.088 5.948,-9.176 9.948,-12.869 2.688,-2.518 5.115,-5.375 7.187,-8.533 -1.271,-2.449 -2.235,-5.033 -3.084,-7.674 l -0.088,-0.096 c -0.965,1.656 -2.031,3.311 -3.139,4.897 -3.309,5.047 -7.536,8.384 -11.556,12.91 -4.698,5.525 -7.419,12.666 -7.468,20.541 0.143,6.785 2.667,12.898 7.146,17.533 C -1.983,0.025 -0.835,0.711 0,0"
             style="fill:#007b5e;fill-opacity:1;fill-rule:nonzero;stroke:none"
             id="path138"
             inkscape:connector-curvature="0" /></g><g
           id="g140"
           transform="translate(86.1895,409.5771)"><path
             d="m 0,0 c 0.787,-0.971 -0.055,-2.174 -0.272,-3.201 -1.97,-5.088 -0.829,-11.379 -2.818,-16.467 -2.223,-7.465 -7.365,-12.881 -11.707,-19.172 -0.327,-0.848 -1.047,-1.572 -1.471,-2.49 -2.079,-4.088 -3.782,-8.41 -3.91,-13.361 l -0.105,-0.028 c -1.415,1.862 -3.219,4.008 -5.756,4.473 -0.179,0.301 0.041,0.574 0.096,0.875 1.852,6.168 4.787,11.732 8.705,16.726 4.753,5.975 9.634,12.362 10.633,20.377 0.06,0.834 0.212,1.848 -0.534,2.311 -1.053,-0.231 -1.449,-1.477 -1.799,-2.352 -0.84,-2.707 -2.072,-5.142 -3.33,-7.644 -1.297,-1.914 -2.351,-3.938 -3.774,-5.799 -2.305,-3.379 -5.348,-6.414 -7.549,-9.902 -0.055,-0.055 -0.239,-0.192 -0.239,0 -0.787,12.691 5.724,23.441 14.517,31.113 2.065,1.75 4.28,3.242 6.736,4.5 C -1.797,0.178 -0.793,0.547 0,0"
             style="fill:#007b5e;fill-opacity:1;fill-rule:nonzero;stroke:none"
             id="path142"
             inkscape:connector-curvature="0" /></g><g
           id="g144"
           transform="translate(42.4595,375.0322)"><path
             d="m 0,0 c 2.867,-6.525 7.925,-11.941 13.547,-15.975 4.964,-4.349 9.574,-9.396 11.836,-15.589 -0.183,-0.18 -0.491,0.093 -0.746,0.123 -8.506,3.951 -17.217,8.861 -21.77,17.462 -0.61,0.821 -0.931,1.791 -2.038,1.999 -0.602,-0.385 -0.411,-1.26 -0.322,-1.875 1.292,-5.403 5.163,-9.178 9.402,-12.624 5.758,-4.855 13.307,-6.632 19.304,-11.269 3.735,-2.721 7.243,-6.113 9.458,-10.231 0,-0.175 -0.28,-0.175 -0.384,-0.136 -0.95,0.562 -2.12,0.877 -3.187,1.164 -1.558,0.287 -3.22,0.383 -4.663,-0.219 l -0.218,0.055 c -2.482,2.775 -5.853,5.113 -9.149,6.974 -1.609,0.971 -3.338,1.86 -5.102,2.543 -3.392,1.711 -6.983,3.377 -9.888,5.881 -7.919,6.346 -12.672,16.508 -10.265,27.133 0.321,1.957 0.815,3.939 2.053,5.361 0.335,0.344 0.69,0.383 1.17,0.289 C -0.512,0.848 -0.272,0.367 0,0"
             style="fill:#007b5e;fill-opacity:1;fill-rule:nonzero;stroke:none"
             id="path146"
             inkscape:connector-curvature="0" /></g><g
           id="g148"
           transform="translate(85.3496,375.0322)"><path
             d="m 0,0 c 3.042,-8.016 1.195,-17.877 -2.394,-25.041 -1.921,-4.637 -3.96,-9.438 -3.274,-14.908 -0.631,0.328 -1.055,0.959 -1.67,1.463 -1.312,1.08 -2.701,2.326 -4.172,3.351 0.288,0.506 0.165,1.19 0.357,1.75 0.43,1.668 0.792,3.379 1.538,4.908 0.096,0.836 0.588,1.438 0.813,2.231 1.122,2.68 2.585,5.225 3.597,7.959 1.211,3.338 2.64,6.99 1.752,10.75 -0.089,0.178 -0.233,0.314 -0.411,0.412 -0.691,0.148 -0.883,-0.713 -1.198,-1.123 -0.91,-3.27 -1.948,-6.469 -3.411,-9.531 -2.126,-4.35 -4.705,-8.522 -5.485,-13.471 -0.19,0 -0.19,0.287 -0.287,0.41 -0.861,2.652 -1.34,5.414 -1.421,8.342 -0.139,6.305 2.64,11.488 6.085,16.055 2.113,3.048 4.281,6.496 4.977,10.394 0.178,0.356 0.507,0.645 0.918,0.779 C -1.554,4.266 -0.725,1.805 0,0"
             style="fill:#007b5e;fill-opacity:1;fill-rule:nonzero;stroke:none"
             id="path150"
             inkscape:connector-curvature="0" /></g><g
           id="g152"
           transform="translate(54.7485,335.2607)"><path
             d="m 0,0 c 4.048,-4.295 9.84,-6.77 15.132,-9.107 1.93,-0.698 3.72,-1.684 5.527,-2.614 0.552,-0.134 0.963,-0.508 1.42,-0.738 2.579,-1.518 5.02,-3.324 7.421,-5.457 0.423,-0.574 1.101,-1.064 1.436,-1.709 -1.737,0.178 -3.557,0.504 -5.362,0.547 -0.396,0.098 -0.861,0 -1.238,0.191 -6.735,0.862 -12.822,3.748 -17.648,8.205 -0.685,0.411 -1.342,1.041 -2.21,0.877 -0.553,-0.849 0.274,-1.627 0.549,-2.367 4.559,-5.976 11.795,-8.902 19.166,-10.053 4.158,-0.451 8.172,-1.203 11.987,-2.406 0.322,-0.191 0.178,-0.547 0.322,-0.834 0.642,-2.31 1.708,-4.541 2.762,-6.66 -0.335,-0.15 -0.636,0.027 -0.923,0.273 -5.163,1.901 -10.674,3.008 -16.28,3.883 -2.334,0.465 -4.542,1.067 -6.702,1.862 -6.49,2.584 -11.81,7.084 -15.359,13.142 -1.709,3.063 -2.715,6.537 -3.119,10.19 -0.096,1.38 -0.232,3.144 0.966,3.896 C -1.148,1.531 -0.534,0.506 0,0"
             style="fill:#007b5e;fill-opacity:1;fill-rule:nonzero;stroke:none"
             id="path154"
             inkscape:connector-curvature="0" /></g><g
           id="g156"
           transform="translate(91.1538,350.6865)"><path
             d="m 0,0 c 0.615,-1.34 0.453,-3.008 0.834,-4.443 1.068,-4.596 4.104,-8.385 4.924,-13.061 1.574,-6.935 1.854,-14.307 3.747,-21.062 1.053,-3.707 2.81,-7.276 4.924,-10.338 -1.601,0.383 -3.255,1.025 -5.075,0.847 -0.69,-0.041 -1.326,-0.232 -1.934,-0.439 -4.985,7.045 -5.696,16.166 -6.366,25.15 -0.418,3.707 -1.101,7.332 -1.964,10.848 -0.238,0.586 -0.458,1.326 -1.031,1.709 -0.808,0.096 -0.725,-0.793 -1.054,-1.258 -0.499,-4.486 1.013,-8.562 1.115,-13.019 0.368,-3.27 0.185,-6.647 0.685,-9.905 -0.173,0.098 -0.317,0.276 -0.405,0.481 -0.704,0.683 -1.196,1.367 -1.674,2.08 -3.584,5.359 -5.615,11.801 -4.78,18.83 0.361,2.695 1.052,5.197 1.954,7.603 0.207,0.194 0.207,0.465 0.296,0.741 1.101,1.941 2.084,3.896 3.863,5.334 C -1.415,0.453 -0.322,0.699 0,0"
             style="fill:#007b5e;fill-opacity:1;fill-rule:nonzero;stroke:none"
             id="path158"
             inkscape:connector-curvature="0" /></g><g
           id="g160"
           transform="translate(84.0703,301.8213)"><path
             d="m 0,0 c 4.369,-1.613 9.218,-2.352 14.141,-2.473 5.197,-0.754 10.428,-2.093 14.47,-5.156 L 28.473,-7.768 C 20.788,-7.18 12.527,-9.203 5.572,-6.291 4.931,-6.1 4.144,-5.676 3.487,-6.1 3.391,-6.234 3.268,-6.371 3.316,-6.549 c 0.773,-1.258 2.114,-1.738 3.31,-2.422 4.698,-1.941 10.291,-2.009 15.571,-1.709 8.028,0.217 15.616,-1.203 22.394,-4.486 v -0.109 c -3.351,-0.682 -6.537,-1.657 -9.579,-2.995 -4.057,1.012 -8.535,1.381 -12.911,1.286 -0.711,0.052 -1.504,-0.137 -2.297,0 -1.792,-0.028 -3.494,0.341 -5.239,0.423 -1.757,0.315 -3.555,0.739 -5.224,1.34 -6.715,2.272 -12.616,7.358 -15.414,13.977 -0.328,0.889 -0.615,1.957 -0.301,2.928 0.151,0.314 0.466,0.451 0.745,0.599 C -3.557,1.957 -1.943,0.768 0,0"
             style="fill:#007b5e;fill-opacity:1;fill-rule:nonzero;stroke:none"
             id="path162"
             inkscape:connector-curvature="0" /></g><g
           id="g164"
           transform="translate(105.9517,323.54)"><path
             d="m 0,0 c 6.769,-1.477 11.844,-7.139 14.627,-13.102 4.083,-7.808 8.951,-16.207 16.555,-20.925 0.513,-0.192 0.793,-0.422 1.197,-0.696 -0.117,-0.289 -0.629,-0.369 -1.032,-0.369 -7.672,-0.972 -13.377,4.772 -16.55,10.516 -1.983,3.666 -3.542,7.551 -5.723,11.051 -1.34,1.859 -2.626,4.265 -4.779,5.429 -0.328,0 -0.479,-0.191 -0.61,-0.424 -0.095,-1.109 0.651,-1.984 1.013,-2.9 3.735,-5.293 4.972,-11.994 9.081,-17.041 0,-0.094 0,-0.191 -0.096,-0.246 -5.716,1.861 -10.215,6.113 -12.342,11.857 -2.019,5.006 -2.304,10.739 -5.171,15.319 -0.081,0.465 -0.266,1.08 0.206,1.449 0.95,0.738 2.339,0.371 3.488,0.178 z"
             style="fill:#007b5e;fill-opacity:1;fill-rule:nonzero;stroke:none"
             id="path166"
             inkscape:connector-curvature="0" /></g><g
           id="g168"
           transform="translate(227.5259,323.6631)"><path
             d="m 0,0 c 0.034,0.932 0.034,1.996 0,2.928 0.465,-0.055 0.965,0.08 1.279,0.504 2.393,3.08 0.8,7.783 2.742,11.009 0.355,0.946 1.278,1.643 2.338,1.643 1.431,-0.371 2.448,-1.875 3.084,-3.104 0.232,-0.658 0.596,-1.435 1.286,-1.587 0.097,0.082 0.275,0.082 0.369,0 2.271,1.23 2.668,3.871 3.468,6.045 0.443,1.765 1.011,3.486 1.887,5.115 0.649,1.025 1.376,1.9 2.524,2.242 0.178,0.221 0.533,-0.068 0.696,0.027 1.19,-0.396 1.656,-1.709 1.71,-2.871 0.097,-0.355 0.411,-0.754 0.752,-0.918 1.354,-0.232 2.092,1.069 2.927,1.86 1.71,3.023 3.952,6.154 7.577,6.935 1.039,0.041 2.202,-0.219 2.66,-1.162 1.525,-2.832 -0.24,-5.853 -1.075,-8.494 -0.136,-0.643 -0.272,-1.625 0.233,-2.188 0.842,-0.273 1.805,-0.027 2.689,-0.314 0.586,-0.232 1.148,-0.889 1.148,-1.572 -0.321,-3.078 -3.235,-4.938 -5.436,-6.43 -1.765,-1.16 -3.844,-1.914 -5.034,-3.869 -0.04,-0.274 0,-0.547 0,-0.834 0.337,-0.451 0.876,-0.369 1.294,-0.561 0.97,-0.082 1.9,-0.629 2.166,-1.56 0.227,-1.86 -1.627,-2.735 -2.679,-3.678 -2.482,-1.355 -5.28,-2.064 -8.029,-2.885 -1.272,-0.631 -2.606,-1.135 -3.509,-2.326 -0.115,-0.287 -0.3,-0.711 0,-0.984 0.762,-0.875 2.237,-0.328 3.208,-0.875 0.957,-0.233 2.126,-0.877 2.21,-2.039 -0.241,-2.147 -2.496,-3.077 -4.233,-3.787 -0.282,-0.083 -0.575,-0.124 -0.842,-0.274 -0.691,-0.221 -1.422,-0.369 -2.153,-0.451 -1.347,-0.287 -2.859,-0.342 -4.253,-0.205 0.97,2.611 0.84,6.18 -1.143,8.125 L 8.61,-5.566 c 2.954,2.515 5.717,5.224 8.457,7.879 0,0.216 0.343,0.369 0.494,0.546 1.497,1.721 3.085,3.446 4.574,5.114 0.677,0.711 1.142,1.492 1.683,2.148 0.971,1.176 1.75,2.461 2.68,3.76 0,0.191 0.177,0.383 0.274,0.48 0.957,1.436 1.833,2.953 2.202,4.676 -0.034,0.192 0.04,0.479 -0.123,0.658 C 28.7,19.898 28.48,19.996 28.234,19.898 27.182,19.42 26.395,18.34 25.705,17.465 19.304,9.135 11.467,2.242 3.631,-4.553 3.181,-4.637 2.667,-4.744 2.209,-4.883 c -0.964,0 -1.668,-0.547 -2.531,-0.695 -0.586,1.435 -0.238,3.295 0.193,4.73 z"
             style="fill:#007b5e;fill-opacity:1;fill-rule:nonzero;stroke:none"
             id="path170"
             inkscape:connector-curvature="0" /></g><g
           id="g172"
           transform="translate(241.1201,407.1846)"><path
             d="m 0,0 c 1.593,0.613 4.554,-1.928 4.753,1.135 -0.561,3.707 -3.754,6.181 -4.863,9.517 -0.58,1.217 -0.942,2.736 -0.649,4.077 0.096,0.466 0.466,0.819 0.856,1.106 0.588,0.439 2.181,0.097 2.523,-0.067 0.793,-0.37 1.531,-0.437 1.79,-0.247 0.377,0.247 0.528,0.671 0.465,1.123 -0.465,1.9 -1.831,3.159 -2.707,4.855 -0.835,1.927 -2.134,4.197 -0.971,6.333 0.192,0.326 0.396,0.462 0.78,0.559 0.738,0.205 1.353,0.165 1.99,-0.11 0.786,-0.341 1.86,-0.984 2.797,0.534 1.53,2.489 -0.131,5.799 0.368,8.739 0.281,1.626 0.937,3.571 2.598,4.172 0.63,0.232 1.376,-0.042 1.875,-0.315 2.98,-1.792 3.323,-5.567 5.538,-8.069 0.314,-0.37 0.827,-0.684 1.341,-0.754 1.053,0.563 1.662,1.875 2.981,1.971 0.739,0.081 1.43,-0.506 1.792,-1.148 1.948,-4.61 -0.82,-9.163 -0.485,-13.91 0.123,-0.587 0.267,-1.244 0.868,-1.573 0.636,-0.272 1.102,0.192 1.565,0.507 0.643,0.89 1.663,1.6 2.9,1.559 0.636,-0.191 0.971,-0.669 1.19,-1.272 0.663,-4.307 -2.393,-7.468 -3.816,-11.132 -0.143,-0.752 -0.444,-1.736 0.048,-2.381 0.369,-0.367 0.986,-0.465 1.477,-0.232 0.882,0.423 2.01,0.929 2.988,0.246 1.101,-1.026 0.562,-2.871 0.096,-4.088 -0.418,-0.987 -0.923,-1.903 -1.511,-2.75 -1.902,1.162 -4.855,0.97 -6.566,-0.383 -3.165,-2.379 -4.554,-6.004 -4.868,-9.75 -0.84,0.449 -1.763,0.779 -2.673,0.971 0.513,3.021 0.787,6.222 1.305,9.328 -0.109,0.136 -0.109,0.258 0,0.437 0.165,2.68 0.384,5.688 0.445,8.479 0,5.893 -0.361,12.13 -1.517,17.832 -0.649,1.492 -0.649,3.448 -2.224,4.337 -0.539,-0.096 -0.581,-0.67 -0.737,-1.094 -0.137,-1.86 0.56,-5.937 0.56,-5.937 C 13.081,15.398 12.754,7.658 11.94,0.588 11.605,-1.08 11.509,-2.941 11.14,-4.65 10.175,-11.133 8.891,-17.383 7.543,-23.715 c -0.042,-0.029 -0.13,-0.096 -0.219,-0.096 -0.772,0.506 -1.84,0.657 -2.818,0.791 -0.096,0.549 -0.026,1.206 -0.13,1.809 -0.519,4.594 -1.518,9.012 -3.876,12.76 -1,2.01 -1.942,4.088 -1.779,6.549 C -1.148,-1.164 -0.785,-0.221 0,0"
             style="fill:#007b5e;fill-opacity:1;fill-rule:nonzero;stroke:none"
             id="path174"
             inkscape:connector-curvature="0" /></g><g
           id="g176"
           transform="translate(251.7134,375.4561)"><path
             d="M 0,0 C -0.178,0.109 0.095,0.258 0.04,0.451 0.191,1.846 -0.138,3.063 -0.369,4.307 0.225,4.074 0.963,3.459 1.708,3.896 c 0.33,0.233 0.453,0.59 0.5,0.985 0.376,0.916 0,1.984 -0.144,2.926 -0.628,2.16 -1.423,4.363 -1.313,6.73 0.028,1.149 0.458,2.543 1.682,2.928 1.859,0.271 2.681,-1.205 3.933,-2.231 0.396,-0.082 0.854,-0.273 1.278,0.041 1.573,1.327 1.846,3.254 2.257,5.168 0.656,2.545 1.668,5.307 3.994,6.799 0.902,0.287 1.914,0.451 2.7,-0.191 2.073,-1.574 2.21,-4.405 2.346,-6.961 -0.082,-0.317 -0.082,-0.82 -0.082,-1.205 -0.054,-0.793 0.123,-1.641 0.78,-2.147 0.957,-0.314 1.374,0.752 2.16,0.752 0.369,0.328 0.924,0.233 1.436,0.233 1.039,-0.19 1.319,-1.299 1.505,-2.215 0,-4.512 -2.982,-7.809 -5.169,-11.336 -0.206,-0.631 -0.589,-1.506 -0.131,-2.109 0.834,-0.696 1.894,0 2.728,-0.081 0.37,0.055 0.733,-0.136 1.067,-0.273 0.683,-0.479 0.807,-1.314 0.718,-2.147 -0.267,-1.328 -1.052,-2.572 -1.97,-3.515 -0.512,-0.848 -1.339,-1.41 -1.894,-2.106 -0.259,-0.177 -0.518,-0.48 -0.785,-0.601 -1.376,-1.684 -3.638,-2.654 -4.049,-4.94 0,-0.312 0.246,-0.656 0.499,-0.75 1.17,-0.166 2.264,0.395 3.55,0.192 0.759,-0.178 1.47,-0.358 1.934,-1.041 0.8,-2.106 -1.175,-3.746 -2.57,-4.938 -1.464,-1.121 -3.132,-1.873 -4.773,-2.597 -0.11,-0.055 -0.254,0.082 -0.254,0.164 -1.34,1.736 -3.406,2.367 -5.573,2.175 -1.572,-0.33 -3.138,-0.834 -4.335,-1.902 -0.322,1.068 -1.039,2.08 -2.025,2.682 1.752,2.474 3.591,5.113 5.122,7.576 0.863,1.176 1.519,2.613 2.333,3.773 0.957,2.231 2.255,4.227 3.089,6.567 0.385,1.201 0.973,2.42 1.292,3.705 0.788,3.201 1.711,6.687 1.102,10.217 -0.068,0.369 -0.191,0.834 -0.587,1.066 C 13.319,15.25 13.128,14.373 12.862,13.838 12.301,11.953 12.006,9.955 11.323,8.082 9.553,2.57 7.097,-2.682 3.992,-7.633 c -0.45,1.545 -1.784,2.748 -3.351,3.01 -0.546,0.094 -1.195,0.094 -1.737,0 -0.191,0.519 0.316,0.889 0.343,1.408 C -0.369,-2.203 -0.083,-1.109 0,0"
             style="fill:#007b5e;fill-opacity:1;fill-rule:nonzero;stroke:none"
             id="path178"
             inkscape:connector-curvature="0" /></g><g
           id="g180"
           transform="translate(222.48,457.1978)"><path
             d="M 0,0 C 0.717,0.479 1.922,0.287 2.694,0.205 2.933,0.136 3.351,0.136 3.625,0.287 5.114,0.669 5.347,2.626 4.931,3.639 4.144,5.717 1.182,7.946 1.58,10.599 c 0.238,0.82 0.805,1.532 1.64,1.859 3.351,1.327 7.113,-3.187 9.738,-4.923 1.107,-0.642 2.106,-1.613 3.549,-1.312 0.964,0.67 1.005,2.133 2.222,2.503 1.19,0.094 2.189,-0.603 2.749,-1.573 1.737,-3.104 2.176,-6.743 2.524,-10.394 0.144,-1.395 0.191,-2.805 0.267,-4.186 -0.699,-1.217 -1.3,-2.597 -1.56,-4.089 -0.349,-2.133 0,-4.321 0.26,-6.319 -0.609,0.042 -1.251,0.274 -2.051,0.179 C 19.495,-10.955 16.89,-4.5 13.081,1.066 12.302,1.996 11.405,3.324 10.113,3.433 9.799,3.24 9.799,2.872 9.846,2.584 9.935,2.105 9.976,1.654 10.264,1.326 10.306,0.917 10.585,0.63 10.661,0.219 c 3.241,-5.854 5.551,-12.542 6.995,-19.229 0.048,-0.656 -0.643,-0.93 -0.827,-1.546 -0.274,-0.861 -0.371,-1.791 -0.499,-2.667 l -0.144,-0.108 c -2.174,3.213 -7.857,3.76 -10.011,7.001 -0.561,0.589 -0.828,1.668 -0.52,2.531 0.643,1.175 2.161,0.71 3.269,1.039 0.315,0.192 0.553,0.505 0.553,0.889 -0.553,1.763 -2.344,2.844 -3.822,3.761 -2.571,1.395 -5.43,3.268 -6.304,6.25 -0.199,0.698 0,1.478 0.649,1.86"
             style="fill:#007b5e;fill-opacity:1;fill-rule:nonzero;stroke:none"
             id="path182"
             inkscape:connector-curvature="0" /></g><g
           id="g184"
           transform="translate(223.252,437.8726)"><path
             d="M 0,0 C 0.706,0.465 1.52,0.247 2.354,0.192 2.668,0.097 3.01,-0.04 3.282,-0.123 c 2.804,-1.298 7.989,-5.798 11.127,-6.4 0.553,-0.137 1.005,0.206 1.374,0.479 0.369,-1.532 0.916,-2.927 1.792,-4.227 0.183,-0.123 0.272,-0.368 0.382,-0.56 -1.381,-0.315 -2.715,-1.34 -3.323,-2.708 l -0.267,-0.492 c -1.394,2.093 -3.965,4.184 -5.531,4.883 -0.26,0.108 -0.712,-0.233 -0.719,-0.479 -0.069,-1.765 1.519,-3.092 2.414,-4.404 2.783,-4.048 5.027,-8.917 6.045,-13.294 -0.738,-0.396 -1.58,-0.916 -2.085,-1.709 -1.567,-2.572 -1.012,-6.127 0.183,-8.699 0.698,-1.559 1.779,-3.049 2.409,-4.678 1.135,-2.609 1.784,-5.4 2.242,-8.216 -0.048,-1.219 -0.137,-2.463 0,-3.612 -0.178,-0.095 -0.048,-0.328 -0.22,-0.371 -0.238,0.178 -0.136,0.453 -0.327,0.617 -1.669,5.606 -10.202,11.159 -13.793,15.426 -1.763,2.504 -3.685,5.238 -2.987,8.492 0.259,0.795 0.971,1.301 1.792,1.301 0.86,0.096 1.88,-0.314 2.801,-0.275 0.473,0.097 0.877,0.275 1.062,0.713 0.375,1.435 -0.651,2.584 -1.341,3.652 -1.102,1.502 -2.522,2.516 -3.822,3.951 -0.136,0.082 -0.136,0.315 -0.267,0.369 -1.347,1.545 -2.865,2.817 -2.278,5.088 0.52,0.985 1.635,0.889 2.545,1.041 0.322,0.231 0.656,0.464 0.732,0.874 0.06,2.749 -1.977,4.595 -3.071,6.729 -0.793,1.49 -1.483,3.173 -1.258,5.06 C -0.814,-1.011 -0.642,-0.369 0,0"
             style="fill:#007b5e;fill-opacity:1;fill-rule:nonzero;stroke:none"
             id="path186"
             inkscape:connector-curvature="0" /></g><g
           id="g188"
           transform="translate(221.6929,353.1221)"><path
             d="M 0,0 C 0.138,1.066 0.178,2.188 0.452,3.16 0.787,4.279 1.19,5.537 2.49,5.867 4.138,6.059 5.527,2.844 6.858,5.033 c 0.651,1.545 0.11,3.283 -0.266,4.785 -0.45,1.67 -1.382,3.147 -1.751,4.924 -0.792,1.479 -1.025,3.24 -1.203,4.965 0.082,0.875 0.178,1.902 0.958,2.447 0.779,0.848 1.818,-0.218 2.68,0.344 0.417,-0.07 0.595,0.326 0.835,0.547 0.539,2.98 -1.436,5.236 -1.026,8.273 0.048,1.67 0.67,3.352 2.039,4.241 1.558,0.984 3.978,0.08 4.936,-1.178 1.216,-1.584 2.256,-3.35 3.063,-5.168 1.163,-2.572 1.805,-4.91 4.828,-2.791 0.924,0.642 1.656,1.682 2.982,1.613 0.785,-0.109 1.339,-0.779 1.586,-1.558 0.355,-1.832 0.206,-3.801 -0.383,-5.524 -0.322,-1.219 -0.78,-2.381 -0.807,-3.695 -0.158,-1.012 0,-1.654 0.211,-2.529 0.219,-0.301 0.316,-0.668 0.69,-0.711 0.74,-0.041 1.295,0.67 2.038,0.753 0.746,0.368 1.703,0.424 2.477,0.053 0.615,-0.41 0.746,-1.162 0.746,-1.859 C 31.106,9.49 27.838,7.48 26.463,4.445 26.34,3.994 26.23,3.516 26.409,3.063 c 0.137,-0.274 0.376,-0.37 0.643,-0.411 0.055,0.137 0.198,0.084 0.287,0 0.369,0.137 0.835,0.084 1.196,0.33 0.973,0 2.113,-0.097 2.634,-1.025 0.643,-1.875 -0.848,-3.338 -1.907,-4.596 h -0.165 c -1.114,1.381 -2.757,1.885 -4.533,1.75 -4.692,-1.191 -6.155,-6.113 -7.441,-11.091 -0.315,0.519 -0.998,1.298 -1.811,1.777 3.616,11.584 3.377,20.158 1.4,29.596 -0.437,1.859 -0.621,3.857 -2.106,5.181 -0.286,0 -0.546,-0.123 -0.69,-0.353 -0.404,-0.875 -0.129,-1.957 -0.178,-2.969 1.579,-13.621 0.678,-21.951 -1.881,-30.635 -0.737,0 -1.967,-0.26 -2.721,-0.873 -2.652,-2.148 -3.679,-5.582 -3.447,-9.15 -0.055,-1.121 -0.191,-1.834 -0.711,-2.75 -2.132,5.867 -5.039,6.468 -7.105,5.377 C 1.135,-11.68 0.288,-6.305 0,0"
             style="fill:#007b5e;fill-opacity:1;fill-rule:nonzero;stroke:none"
             id="path190"
             inkscape:connector-curvature="0" /></g><g
           id="g192"
           transform="translate(196.0713,318.085)"><path
             d="m 0,0 c 0.999,1.119 2.401,2.625 3.911,1.803 1.464,-0.791 0.512,-2.953 1.936,-3.787 1.545,-0.903 2.379,1.941 2.939,3.445 0.971,2.791 1.266,5.648 2.367,7.658 0.725,1.26 1.368,2.695 3.118,2.176 1.23,-0.356 1.094,-3.404 2.967,-3.188 2.537,0.315 3.693,7.483 7.407,6.676 1.811,-0.396 3.508,-3.597 3.582,-7.769 0.021,-2.707 -1.073,-5.414 -0.293,-7.987 0.143,-0.164 0.314,-0.369 0.314,-0.629 -0.998,-0.943 -2.148,-1.765 -3.255,-2.613 -0.321,0.754 -0.779,1.67 -1.525,2.231 -0.465,0.41 -1.087,0.738 -1.606,1.052 0.916,2.051 1.682,4.719 1.45,6.537 -0.152,0.247 -0.644,0.342 -0.877,0.192 -1.36,-1.026 -2.215,-4.129 -3.657,-6.537 -4.337,-0.985 -6.736,-4.61 -8.597,-8.287 -0.17,0.041 -0.108,0.328 -0.246,0.464 -1.12,1.258 -2.762,2.092 -4.628,1.668 -4.59,-0.943 -6.941,-5.757 -9.602,-9.765 -0.704,1.93 -2.098,2.203 -3.816,2.805 C -4.075,-8.961 -3.22,-3.639 0,0"
             style="fill:#007b5e;fill-opacity:1;fill-rule:nonzero;stroke:none"
             id="path194"
             inkscape:connector-curvature="0" /></g><g
           id="g196"
           transform="translate(180.0366,293.6709)"><path
             d="m 0,0 c 2.146,2.723 3.589,5.771 6.414,7.412 0.513,0.303 1.565,0.383 2.147,0.057 0.903,-0.492 0.984,-2.86 2.462,-2.78 1.941,0.125 4.69,3.709 6.045,5.665 1.203,1.779 2.715,3.527 4.881,3.994 0.724,0.107 1.43,-0.069 1.792,-0.686 0.759,-1.203 -0.136,-3.158 1.012,-4.142 1.216,-0.082 1.928,0.847 2.64,1.64 0.902,0.93 1.422,2.338 2.194,3.256 0.062,0.424 0.377,0.793 0.622,1.162 1.471,2.037 3.105,4.24 5.656,4.799 0.834,0.139 1.614,-0.191 1.983,-0.928 0.314,-0.535 0.41,-1.287 0.41,-1.957 -0.191,-0.15 0.096,-0.273 0,-0.467 0.047,-0.408 0.22,-0.818 0.596,-0.927 0.916,-0.274 1.853,0.109 2.64,0.478 3.369,1.272 5.189,4.512 8.738,5.403 1.395,0.478 3.386,0.478 4.574,-0.397 C 56.1,20.598 55.949,18.6 55.6,17.219 55.36,17.123 55.538,16.865 55.457,16.74 54.581,14.455 53.008,12.459 51.996,10.285 52.098,9.943 51.852,9.779 51.818,9.438 c 0,-0.686 0,-1.381 0.507,-1.846 C 52.632,7.359 53.131,7.223 53.458,7.07 54.246,6.744 54.936,6.291 55.32,5.498 55.538,4.199 54.525,3.215 53.513,2.572 49.726,0.191 44.672,1.068 40.665,-0.807 c -1.101,-0.314 -2.632,-0.916 -2.852,-2.187 -0.115,-0.561 0.254,-0.82 0.603,-1.108 0.724,-0.316 1.736,-0.972 1.833,-1.9 0.047,-1.629 -1.588,-2.326 -2.817,-2.832 -0.315,-0.096 -0.691,-0.191 -1.068,-0.328 -6.071,-1.367 -12.704,0.629 -18.846,-0.438 -1.512,-0.246 -3.118,-0.494 -4.513,-1.095 -0.499,-0.039 -0.82,0.33 -1.278,0.425 -2.401,0.875 -4.761,1.86 -7.351,2.366 1.669,0.341 3.377,0.724 4.991,1.054 0.233,0.135 0.609,0.094 0.821,0.192 1.217,0.517 2.441,0.424 3.556,0.982 0.499,-0.041 0.868,0.385 1.341,0.33 1.852,0.657 3.72,1.217 5.648,1.832 1.545,0.643 3.151,1.244 4.758,1.819 0.193,0.216 0.507,0.216 0.63,0.259 0.397,0.151 0.662,0.424 1.08,0.438 0.56,0.316 1.245,0.547 1.834,0.834 2.412,1.164 4.944,2.23 7.152,3.639 0.703,0.273 1.511,0.779 2.229,1.203 3.028,2.051 6.353,3.965 8.466,7.125 0.123,0.275 0.327,0.754 0.047,1.025 C 46.28,13.184 45.541,12.732 44.891,12.541 41.622,10.299 38.58,8.494 35.182,6.729 33.369,5.867 31.68,5.047 29.867,4.199 29.404,4.008 28.904,3.885 28.446,3.68 26.641,2.83 24.753,2.203 22.919,1.492 21.643,1.068 20.199,0.699 18.899,0.275 18.031,0 17.204,-0.258 16.322,-0.52 10.811,-2.105 3.022,-3.994 -1.506,-4.867 -3.023,-5.143 -4.63,-5.51 -6.202,-5.701 c -0.089,0.039 0,0.135 0.034,0.203 C -2.948,-3.814 -1.313,-1.6 0,0"
             style="fill:#007b5e;fill-opacity:1;fill-rule:nonzero;stroke:none"
             id="path198"
             inkscape:connector-curvature="0" /></g><g
           id="g200"
           transform="translate(145.2446,287.3525)"><path
             d="m 0,0 c 3.828,1.355 7.22,3.27 10.351,5.813 3.366,-3.065 7.714,-4.76 11.852,-6.374 v -0.095 c -3.646,-3.543 -7.591,-6.414 -11.891,-8.711 -0.309,0 -0.398,0.246 -0.691,0.328 -3.365,1.969 -6.942,4.199 -9.814,7.043 -0.492,0.328 -0.957,0.875 -1.421,1.355 C -1.109,-0.369 -0.515,-0.26 0,0"
             style="fill:#ed1c24;fill-opacity:1;fill-rule:evenodd;stroke:none"
             id="path202"
             inkscape:connector-curvature="0" /></g><g
           id="g204"
           transform="translate(120.688,279.8193)"><path
             d="M 0,0 C 0.322,0.271 0.84,0.178 1.196,0.463 5.114,1.762 9.074,2.609 13.15,3.498 15.106,4.006 17.149,4.523 19.071,5.141 20.33,3.705 21.615,2.721 22.956,1.559 21.465,0.873 19.804,0.477 18.237,0.025 13.087,-1.656 7.515,-2.313 2.399,-4.092 c -3.542,-1.271 -7.008,-2.803 -9.545,-5.646 -1.258,-1.149 -2.119,-2.682 -2.796,-4.268 -1.109,1.531 -1.847,3.199 -2.995,4.649 C -10.148,-4.625 -4.8,-1.971 0,0"
             style="fill:#007b5e;fill-opacity:1;fill-rule:nonzero;stroke:none"
             id="path206"
             inkscape:connector-curvature="0" /></g><g
           id="g208"
           transform="translate(163.3506,278.6416)"><path
             d="m 0,0 c 0.048,0.178 0.254,0.273 0.377,0.178 1.004,-0.547 2.208,-0.834 3.262,-1.246 3.173,-1.202 6.597,-1.94 9.956,-2.735 0.876,-0.039 1.669,-0.41 2.584,-0.451 2.216,-0.506 4.595,-0.957 6.675,-1.654 0.424,-0.287 0.957,-0.18 1.347,-0.561 4.259,-1.478 8.287,-4.541 10.045,-8.752 l 0.123,-0.508 c -1.182,-1.777 -2.148,-3.363 -3.296,-5.167 -0.343,0.257 -0.191,0.833 -0.383,1.257 -1.456,6.535 -8.527,8.985 -14.278,10.42 -7.29,1.383 -14.374,3.27 -20.96,6.278 C -2.94,-2.148 -1.47,-1 0,0"
             style="fill:#007b5e;fill-opacity:1;fill-rule:nonzero;stroke:none"
             id="path210"
             inkscape:connector-curvature="0" /></g><g
           id="g212"
           transform="translate(170.7695,285.0557)"><path
             d="m 0,0 c 5.37,-1.832 11.234,-2.381 16.583,-4.145 4.704,-1.435 9.053,-3.693 12.679,-6.851 0.916,-1.121 2.022,-2.119 2.55,-3.488 -0.554,-0.504 -0.74,-1.162 -1.211,-1.723 -0.609,-0.875 -1.135,-1.955 -1.799,-2.83 -0.144,0.096 -0.089,0.328 -0.178,0.41 -1.031,2.393 -2.856,4.279 -4.805,5.949 -0.165,0.041 -0.356,0.274 -0.589,0.424 -6.003,4.022 -13.628,4.649 -20.693,6.441 -2.208,0.657 -4.423,1.217 -6.544,2.092 C -2.708,-2.516 -1.292,-1.301 0,0"
             style="fill:#ed1c24;fill-opacity:1;fill-rule:nonzero;stroke:none"
             id="path214"
             inkscape:connector-curvature="0" /></g><g
           id="g216"
           transform="translate(116.5918,268.1924)"><path
             d="m 0,0 c 3.816,3.434 9.027,4.896 14.086,5.922 0.288,0.191 0.609,0.082 0.931,0.232 0.526,0.041 1.052,0.233 1.614,0.33 1.517,0.424 3.179,0.641 4.703,1.135 2.982,0.834 5.943,1.762 8.802,2.981 C 31.612,9.52 33.097,8.369 34.695,7.453 27.646,4.322 20.125,2.23 12.344,0.82 8.752,-0.26 5.163,-1.668 2.352,-4.322 0.738,-6.086 -0.274,-8.178 -0.704,-10.504 h -0.083 c -1.004,1.67 -2.085,3.42 -3.097,4.965 C -3.275,-3.445 -1.606,-1.545 0,0"
             style="fill:#ed1c24;fill-opacity:1;fill-rule:nonzero;stroke:none"
             id="path218"
             inkscape:connector-curvature="0" /></g><g
           id="g220"
           transform="translate(141.1826,308.8115)"><path
             d="m 0,0 c -0.479,0.492 -4.397,1.791 -7.031,1.791 3.775,-4.951 9.848,-12.992 14.852,-17.629 1.492,0.697 2.579,1.422 3.824,2.504 C 7.494,-9.176 3.617,-4.719 0,0"
             style="fill:#007b5e;fill-opacity:1;fill-rule:nonzero;stroke:none"
             id="path222"
             inkscape:connector-curvature="0" /></g><g
           id="g224"
           transform="translate(129.0244,311.9287)"><path
             d="m 0,0 c -0.528,0.754 -3.809,1.547 -6.539,1.547 4.842,-7.524 12.378,-17.738 18.504,-23.99 1.614,0.521 3.05,1.095 4.514,1.806 C 8.834,-12.432 5.156,-7.467 0,0"
             style="fill:#ed1c24;fill-opacity:1;fill-rule:nonzero;stroke:none"
             id="path226"
             inkscape:connector-curvature="0" /></g><g
           id="g228"
           transform="translate(170.0107,308.8115)"><path
             d="m 0,0 c 0.5,0.492 4.41,1.791 7.031,1.791 -3.761,-4.951 -9.84,-12.992 -14.84,-17.629 -1.477,0.697 -2.584,1.422 -3.836,2.504 C -7.486,-9.176 -3.617,-4.719 0,0"
             style="fill:#007b5e;fill-opacity:1;fill-rule:nonzero;stroke:none"
             id="path230"
             inkscape:connector-curvature="0" /></g><g
           id="g232"
           transform="translate(182.1973,311.9287)"><path
             d="m 0,0 c 0.526,0.754 3.78,1.547 6.509,1.547 -4.827,-7.524 -12.397,-17.738 -18.504,-23.99 -1.599,0.521 -3.035,1.095 -4.513,1.806 C -8.862,-12.432 -5.171,-7.467 0,0"
             style="fill:#ed1c24;fill-opacity:1;fill-rule:nonzero;stroke:none"
             id="path234"
             inkscape:connector-curvature="0" /></g><g
           id="g236"
           transform="translate(155.5957,319.001)"><path
             d="m 0,0 c -0.73,0.914 -1.907,1.748 -3.616,2.748 -6.688,3.596 -17.637,4.443 -23.695,5.375 -14.968,2.256 -25.15,12.717 -25.15,27.365 v 0.821 102.175 H 52.477 V 36.309 35.488 C 52.477,20.84 42.281,10.379 27.313,8.123 21.253,7.191 10.306,6.344 3.646,2.748 1.909,1.748 0.74,0.914 0,0 m 0,5.564 c 7.831,4.815 17.562,5.403 26.751,6.797 12.22,1.834 21.451,10.162 21.451,22.991 v 0.82 98.045 h -96.41 v -98.045 -0.82 c 0,-12.829 9.238,-21.157 21.485,-22.991 C -17.546,10.967 -7.809,10.379 0,5.564"
             style="fill:#231f20;fill-opacity:1;fill-rule:evenodd;stroke:none"
             id="path238"
             inkscape:connector-curvature="0" /></g><path
           d="m 115.156,500.852 h 4.246 v -8.712 h -4.246 z"
           style="fill:#231f20;fill-opacity:1;fill-rule:nonzero;stroke:none"
           id="path240"
           inkscape:connector-curvature="0" /><g
           id="g242"
           transform="translate(149.6055,509.7817)"><path
             d="M 0,0 H 4.248 V -4.472 H 7.727 V 0 h 4.269 V -8.738 H 0 Z"
             style="fill:#231f20;fill-opacity:1;fill-rule:nonzero;stroke:none"
             id="path244"
             inkscape:connector-curvature="0" /></g><g
           id="g246"
           transform="translate(122.8965,495.3267)"><path
             d="M 0,0 V 9.983 H 4.253 V 1.258 L 8.527,-5.307 V -18.872 H 4.253 v 12.307 z"
             style="fill:#231f20;fill-opacity:1;fill-rule:nonzero;stroke:none"
             id="path248"
             inkscape:connector-curvature="0" /></g><g
           id="g250"
           transform="translate(134.8911,500.8521)"><path
             d="M 0,0 H 3.493 V -4.268 H -4.26 V 4.458 H 0 Z"
             style="fill:#231f20;fill-opacity:1;fill-rule:nonzero;stroke:none"
             id="path252"
             inkscape:connector-curvature="0" /></g><g
           id="g254"
           transform="translate(142.2344,468.6987)"><path
             d="m 0,0 h -30.565 v 15.592 l -4.282,6.577 v 9.984 h 4.282 v -8.712 l 4.266,-6.564 V 4.268 H 0 Z"
             style="fill:#231f20;fill-opacity:1;fill-rule:nonzero;stroke:none"
             id="path256"
             inkscape:connector-curvature="0" /></g><path
           d="m 191.784,500.852 h 4.266 v -8.712 h -4.266 z"
           style="fill:#231f20;fill-opacity:1;fill-rule:nonzero;stroke:none"
           id="path258"
           inkscape:connector-curvature="0" /><g
           id="g260"
           transform="translate(188.3232,495.3267)"><path
             d="M 0,0 V 9.983 H -4.267 V 1.258 l -4.274,-6.565 v -13.565 h 4.274 v 12.307 z"
             style="fill:#231f20;fill-opacity:1;fill-rule:nonzero;stroke:none"
             id="path262"
             inkscape:connector-curvature="0" /></g><g
           id="g264"
           transform="translate(176.3096,500.8521)"><path
             d="M 0,0 H -3.474 V -4.268 H 4.261 V 4.458 H 0 Z"
             style="fill:#231f20;fill-opacity:1;fill-rule:nonzero;stroke:none"
             id="path266"
             inkscape:connector-curvature="0" /></g><g
           id="g268"
           transform="translate(111.6689,460.9585)"><path
             d="m 0,0 v 4.281 h 34.06 v 7.727 c 0,5.471 4.41,9.888 9.867,9.888 5.464,0 9.874,-4.417 9.874,-9.888 V 4.281 H 87.876 V 0 h -38.32 v 12.008 c 0,3.103 -2.538,5.606 -5.629,5.606 -3.09,0 -5.614,-2.503 -5.614,-5.606 L 38.313,0 Z"
             style="fill:#231f20;fill-opacity:1;fill-rule:nonzero;stroke:none"
             id="path270"
             inkscape:connector-curvature="0" /></g><g
           id="g272"
           transform="translate(168.9434,468.6987)"><path
             d="m 0,0 h 30.602 v 15.592 l 4.252,6.577 v 9.984 H 30.602 V 23.441 L 26.335,16.877 V 4.268 H 0 Z"
             style="fill:#231f20;fill-opacity:1;fill-rule:nonzero;stroke:none"
             id="path274"
             inkscape:connector-curvature="0" /></g><g
           id="g276"
           transform="translate(149.9819,485.1099)"><path
             d="m 0,0 v 9.972 l -3.863,5.962 v 8.738 h -4.28 v -9.997 l 3.89,-5.962 V -3.145 C -3.055,-1.831 -1.614,-0.765 0,0"
             style="fill:#231f20;fill-opacity:1;fill-rule:nonzero;stroke:none"
             id="path278"
             inkscape:connector-curvature="0" /></g><g
           id="g280"
           transform="translate(161.2246,485.1099)"><path
             d="m 0,0 v 9.972 l 3.85,5.962 v 8.738 H 8.125 V 14.675 L 4.246,8.713 V -3.145 C 3.07,-1.831 1.619,-0.765 0,0"
             style="fill:#231f20;fill-opacity:1;fill-rule:nonzero;stroke:none"
             id="path282"
             inkscape:connector-curvature="0" /></g></g></g></g></svg>